<svg width="512" height="512" viewBox="0 0 512 512" fill="none" xmlns="http://www.w3.org/2000/svg">
<path fill-rule="evenodd" clip-rule="evenodd" d="M256 512C397.385 512 512 397.385 512 256C512 114.615 397.385 0 256 0C114.615 0 0 114.615 0 256C0 397.385 114.615 512 256 512ZM256 496C388.548 496 496 388.548 496 256C496 123.452 388.548 16 256 16C123.452 16 16 123.452 16 256C16 388.548 123.452 496 256 496Z" fill="white"/>
<path fill-rule="evenodd" clip-rule="evenodd" d="M256.5 348C307.586 348 349 306.586 349 255.5C349 204.414 307.586 163 256.5 163C205.414 163 164 204.414 164 255.5C164 306.586 205.414 348 256.5 348ZM256 336C300.183 336 336 300.183 336 256C336 211.817 300.183 176 256 176C211.817 176 176 211.817 176 256C176 300.183 211.817 336 256 336Z" fill="white"/>
<path fill-rule="evenodd" clip-rule="evenodd" d="M349 188C362.807 188 374 176.807 374 163C374 149.193 362.807 138 349 138C335.193 138 324 149.193 324 163C324 176.807 335.193 188 349 188ZM349 178C357.284 178 364 171.284 364 163C364 154.716 357.284 148 349 148C340.716 148 334 154.716 334 163C334 171.284 340.716 178 349 178Z" fill="white"/>
<path fill-rule="evenodd" clip-rule="evenodd" d="M148 102C122.595 102 102 122.595 102 148V364C102 389.405 122.595 410 148 410H364C389.405 410 410 389.405 410 364V148C410 122.595 389.405 102 364 102H148ZM147 118C131.536 118 119 130.536 119 146V365C119 380.464 131.536 393 147 393H366C381.464 393 394 380.464 394 365V146C394 130.536 381.464 118 366 118H147Z" fill="white"/>
</svg>
